<?xml version="1.0" encoding="UTF-8"?>
<svg id="Layer_2" data-name="Layer 2" xmlns="http://www.w3.org/2000/svg" width="221.72" height="167.3" viewBox="0 0 221.72 167.3">
  <defs>
    <style>
      .cls-1 {
        fill: none;
        stroke: #231f20;
        stroke-linecap: round;
        stroke-linejoin: round;
      }
    </style>
  </defs>
  <g id="BottLeft">
    <path id="start6p" class="cls-1" d="m37.43.5c15.47,38.03,1.26,45.51-36.93,39.2,44.4,10.73,42.67,28.57,25.24,60.66,38.16-41.24,54.99-39.58,67.1-4.19-10.64-41.54-3.74-45.74,40.27-48.96-38.4-.56-58.6-4.12-42.66-45.04-23.64,43.15-36.57,22.08-53.02-1.67Z"/>
    <path id="loop4x" class="cls-1" d="m221.22,89.81c-.06-25.96-25.49-28.38-37.82-7.64-17.11,28.78,10.76,74.92,26.1,67.94,17.04-7.76-20.22-45.77-49.55-36.35-18.8,6.04-33.37,48.79-18.11,52.78s16.18-39.43-2.66-52.79c-29.78-21.11-51.83,3.59-44.58,11.22,7.25,7.62,47.42-11.72,13.98-52.07"/>
  </g>
</svg>