<?xml version="1.0" encoding="UTF-8"?>
<svg id="Layer_2" data-name="Layer 2" xmlns="http://www.w3.org/2000/svg" width="157.18" height="240.23" viewBox="0 0 157.18 240.23">
  <defs>
    <style>
      .cls-1 {
        fill: none;
        stroke: #231f20;
        stroke-linecap: round;
        stroke-linejoin: round;
      }
    </style>
  </defs>
  <g id="BottRight">
    <path id="star5p" class="cls-1" d="m93.11.5c7.93,21.12,9,38.06-27.63,37.27,29.25.18,35.65,12.17,32.13,43.47,2.44-12.29,8.54-42.09,53.28-29.83-13.11-6.47-26.3-15.36-7.7-48.97-26,35.85-41.52,15.37-50.07-1.93Z"/>
    <path id="loop3x" class="cls-1" d="m.5,239.73c8.03-.09,23.6-.42,34.67-15.59,22.84-31.28-17.65-71.06-31.81-44.69-10.46,19.47,34.52,34.72,65.52,7.03,33.1-29.57,21.19-102.57-19.97-82.54-44.36,21.59,21.41,100.44,82.7,63.3,31.11-18.85,36.64-64.31-2.72-93.33"/>
  </g>
</svg>