<?xml version="1.0" encoding="UTF-8"?>
<svg id="BottRight" xmlns="http://www.w3.org/2000/svg" width="91.17" height="151.63" viewBox="0 0 91.17 151.63">
  <defs>
    <style>
      .cls-1 {
        fill: none;
        stroke: #231f20;
        stroke-linecap: round;
        stroke-linejoin: round;
      }
    </style>
  </defs>
  <path id="star5p" class="cls-1" d="m41.59,1c5.7,14.5,9.24,24-10.62,27.8,17.42.09,21.35,6.61,22.27,23.57.86-13.38,1.21-26.76,30.39-23.14-10.53-6.22-17.09-8.63-9.24-27.45-17.39,21.93-26.34,8.58-32.81-.78Z"/>
  <path id="loop3x" class="cls-1" d="m2.92,150.78c4.06,0,13.09-1.02,19.29-10.49,13.29-20.29-13.55-42.38-20.58-25.77-5.19,12.26,22.91,19.46,39.96,1.12,18.21-19.58,7.38-62.5-16.2-48.2C-.01,82.87,42.63,125.14,78.52,100.83c18.14-12.29,15.05-40.18-5.97-54.42"/>
</svg>