<?xml version="1.0" encoding="UTF-8"?>
<svg id="BottLeft" xmlns="http://www.w3.org/2000/svg" width="142.36" height="94.31" viewBox="0 0 142.36 94.31">
  <path id="start6p" class="cls-1" d="m20.25,4.72c12.37,21.8,4.36,27.44-19.25,26.64,27.72,2.99,27.83,13.19,19.81,33.99,19.84-27.97,29.89-27.59,40.01-7.12-9.35-21.71-5.58-25.82,20.46-33.67-22.88,1.18-35.36.82-29.4-23.57-10.9,27.98-19.8,16.8-31.64,3.72Z"/>
  <path id="loop4x" class="cls-1" d="m138.22,37.65c-3.45-14.5-19.8-13.5-23.83,1.99-4.92,18.91,14.5,40.49,24.87,35.03,11.08-5.84-19.32-24.97-34.49-14.47-12.57,8.71-14.01,32.51-4.58,33.1,9.54.6,5.57-25.18-7.04-30.86-19.92-8.98-30.63,8.21-25.5,11.86,5.14,3.65,26.1-10.39,2.89-31.66"/>
</svg>